<svg width="400" height="300" viewBox="0 0 400 300" fill="none" xmlns="http://www.w3.org/2000/svg">
<rect width="400" height="300" fill="#F3F4F6"/>
<path d="M200 110C177.909 110 160 127.909 160 150C160 172.091 177.909 190 200 190C222.091 190 240 172.091 240 150C240 127.909 222.091 110 200 110ZM200 170C188.954 170 180 161.046 180 150C180 138.954 188.954 130 200 130C211.046 130 220 138.954 220 150C220 161.046 211.046 170 200 170Z" fill="#9CA3AF"/>
<path d="M200 80L215 110H185L200 80Z" fill="#9CA3AF"/>
<path d="M200 220L185 190H215L200 220Z" fill="#9CA3AF"/>
<path d="M270 150L240 165V135L270 150Z" fill="#9CA3AF"/>
<path d="M130 150L160 135V165L130 150Z" fill="#9CA3AF"/>
</svg>
